<svg width="27" height="28" viewBox="0 0 27 28" fill="none" xmlns="http://www.w3.org/2000/svg">
<path d="M23.7766 10.6741L23.7603 10.6578C23.759 10.6569 23.758 10.6557 23.7573 10.6543L13.6072 0.503906L3.4571 10.6541C3.45593 10.6552 3.45528 10.6568 3.4541 10.6576L3.43735 10.6738C1.88527 12.2346 0.899424 14.2694 0.636545 16.4549C0.373665 18.6403 0.848835 20.8509 1.98651 22.7353C3.12419 24.6197 4.85909 26.0697 6.91543 26.8548C8.97175 27.6398 11.2315 27.715 13.3354 27.0683C13.5125 27.0141 13.7017 27.0141 13.8788 27.0683C15.9826 27.7148 18.2422 27.6396 20.2984 26.8544C22.3546 26.0692 24.0893 24.6193 25.2269 22.735C26.3645 20.8508 26.8397 18.6403 26.577 16.455C26.3142 14.2697 25.3285 12.2349 23.7766 10.6741ZM7.06633 17.3674C7.01692 17.4168 6.97774 17.4756 6.95101 17.54C6.92428 17.6045 6.91051 17.6737 6.91053 17.7436C6.92859 19.535 7.43487 21.2876 8.37489 22.8127C8.39624 22.8473 8.40611 22.8878 8.40308 22.9283C8.40005 22.9688 8.38429 23.0074 8.35802 23.0384C8.33177 23.0695 8.29637 23.0914 8.2569 23.1011C8.21742 23.1108 8.17589 23.1077 8.13825 23.0924C7.43157 22.7952 6.78959 22.3631 6.2482 21.8203C5.13872 20.7107 4.51499 19.206 4.51398 17.6368C4.51297 16.0676 5.13478 14.5621 6.24284 13.4511L13.6072 6.08742L20.9711 13.4511C22.0794 14.562 22.7014 16.0675 22.7003 17.6368C22.6994 19.206 22.0756 20.7107 20.966 21.8203C20.4246 22.3631 19.7827 22.7952 19.0761 23.0924C19.0384 23.1077 18.9968 23.1108 18.9574 23.1011C18.9179 23.0914 18.8825 23.0693 18.8562 23.0384C18.83 23.0074 18.8141 22.9688 18.8111 22.9282C18.8081 22.8877 18.8179 22.8472 18.8393 22.8126C19.7795 21.2876 20.2861 19.535 20.3044 17.7436C20.3044 17.6737 20.2905 17.6045 20.2636 17.5399C20.2368 17.4753 20.1975 17.4167 20.1479 17.3673L16.6647 13.6727C16.63 13.6438 16.5864 13.6279 16.5411 13.6279C16.4961 13.6279 16.4523 13.6438 16.4177 13.6727C16.383 13.7015 16.3596 13.7418 16.3515 13.7862C16.3434 13.8306 16.3511 13.8764 16.3734 13.9157C17.7262 16.3638 16.5629 19.8801 14.6229 21.8203L14.6127 21.8306C14.345 22.0954 13.9835 22.2439 13.6069 22.2438C13.2302 22.2437 12.8689 22.0949 12.6013 21.8299L12.5919 21.8203C10.6512 19.8801 9.48854 16.3642 10.8416 13.9162C10.8638 13.8769 10.8716 13.8312 10.8635 13.7867C10.8554 13.7423 10.832 13.7021 10.7973 13.6732C10.7626 13.6443 10.7189 13.6284 10.6738 13.6284C10.6286 13.6284 10.5849 13.6443 10.5502 13.6732L7.06633 17.3674Z" fill="#121212"/>
</svg>
